<svg xmlns="http://www.w3.org/2000/svg" width="539.282" height="319.893" viewBox="-149.661 -44.581 539.282 319.893"><title>Neo4j Graph Visualization</title><desc>Created using Neo4j (http://www.neo4j.com/)</desc><g class="layer relationships"><g class="relationship"><path fill="#A5ABB6" stroke="none" d="M 24.018736134675446,6.953439040707552 L 24.277555179777966,5.987513214418485 A 210.56600705297578 210.56600705297578 0 0 0 67.95362470381714,12.884072923829535 L 67.90222788291557,13.882751233797876 A 211.56600705297578 211.56600705297578 0 0 1 24.018736134675446,6.953439040707552 Z M 85.0581635948032,14.069086642061194 L 85.02847018788009,13.069527588485414 A 210.56600705297578 210.56600705297578 0 0 0 128.8440294746181,7.123238890103009 L 128.13069522681036,4.209280371025471 L 135.76215506043366,5.944452065064526 L 129.79514180502844,11.008516915539726 L 129.08180755722069,8.094558396462189 A 211.56600705297578 211.56600705297578 0 0 1 85.0581635948032,14.069086642061194" class="outline" transform="translate(190.1661338907922 246.31209802090467) rotate(232.313817838658)"/><text x="76.484" y="16.65" fill="#000" font-family="sans-serif" font-size="8" pointer-events="none" text-anchor="middle" transform="translate(190.1661338907922 246.31209802090467) rotate(232.313817838658) rotate(180 76.4837364221871 13.649927565099887)">0.8</text></g><g class="relationship"><path fill="#A5ABB6" stroke="none" d="M 25 0.5 L 77.634465491449 0.5 L 77.634465491449 -0.5 L 25 -0.5 Z M 94.755559241449 0.5 L 147.390024732898 0.5 L 147.390024732898 3.5 L 154.390024732898 0 L 147.390024732898 -3.5 L 147.390024732898 -0.5 L 94.755559241449 -0.5 Z" class="outline" transform="translate(210.18670643567268 -15.581066538529086) rotate(491.0726259892713)"/><text x="86.195" y="3" fill="#000" font-family="sans-serif" font-size="8" pointer-events="none" text-anchor="middle" transform="translate(210.18670643567268 -15.581066538529086) rotate(491.0726259892713) rotate(180 86.195012366449 0)">1.0</text></g><g class="relationship"><path fill="#A5ABB6" stroke="none" d="M 25 0.5 L 112.3159974936122 0.5 L 112.3159974936122 -0.5 L 25 -0.5 Z M 129.4370912436122 0.5 L 216.7530887372244 0.5 L 216.7530887372244 3.5 L 223.7530887372244 0 L 216.7530887372244 -3.5 L 216.7530887372244 -0.5 L 129.4370912436122 -0.5 Z" class="outline" transform="translate(337.8222273264733 79.54361759631763) rotate(530.720084004562)"/><text x="120.877" y="3" fill="#000" font-family="sans-serif" font-size="8" pointer-events="none" text-anchor="middle" transform="translate(337.8222273264733 79.54361759631763) rotate(530.720084004562) rotate(180 120.8765443686122 0)">1.0</text></g><g class="relationship"><path fill="#A5ABB6" stroke="none" d="M 25 0.5 L 108.59355224753513 0.5 L 108.59355224753513 -0.5 L 25 -0.5 Z M 125.71464599753513 0.5 L 209.30819824507026 0.5 L 209.30819824507026 3.5 L 216.30819824507026 0 L 209.30819824507026 -3.5 L 209.30819824507026 -0.5 L 125.71464599753513 -0.5 Z" class="outline" transform="translate(308.5777982820808 12.585716827554165) rotate(513.6590496422826)"/><text x="117.154" y="3" fill="#000" font-family="sans-serif" font-size="8" pointer-events="none" text-anchor="middle" transform="translate(308.5777982820808 12.585716827554165) rotate(513.6590496422826) rotate(180 117.15409912253513 0)">1.0</text></g><g class="relationship"><path fill="#A5ABB6" stroke="none" d="M 25 0.5 L 123.66333549725977 0.5 L 123.66333549725977 -0.5 L 25 -0.5 Z M 140.78442924725977 0.5 L 239.44776474451953 0.5 L 239.44776474451953 3.5 L 246.44776474451953 0 L 239.44776474451953 -3.5 L 239.44776474451953 -0.5 L 140.78442924725977 -0.5 Z" class="outline" transform="translate(360.62081436821063 160.90149832954094) rotate(188.73952078473485)"/><text x="132.224" y="3" fill="#000" font-family="sans-serif" font-size="8" pointer-events="none" text-anchor="middle" transform="translate(360.62081436821063 160.90149832954094) rotate(188.73952078473485) rotate(180 132.22388237225977 0)">1.0</text></g><g class="relationship"><path fill="#A5ABB6" stroke="none" d="M 24.018736134675446,6.953439040707552 L 24.277555179777966,5.987513214418485 A 215.02649688118166 215.02649688118166 0 0 0 69.09045270107644,13.040951656797063 L 69.04004005319139,14.039680130874586 A 216.02649688118166 216.02649688118166 0 0 1 24.018736134675446,6.953439040707552 Z M 86.19535637071324,14.223502846285413 L 86.16635599952333,13.223923445501839 A 215.02649688118166 215.02649688118166 0 0 0 131.12010497434102,7.13235293996726 L 130.40591954218488,4.218602921778336 L 138.0378859221412,5.951545267967768 L 132.07235221721587,11.017352964219159 L 131.35816678505972,8.103602946030234 A 216.02649688118166 216.02649688118166 0 0 1 86.19535637071324,14.223502846285413" class="outline" transform="translate(-10.154047083288859 245.53631984646591) rotate(309.1491581177085)"/><text x="77.621" y="16.802" fill="#000" font-family="sans-serif" font-size="8" pointer-events="none" text-anchor="middle" transform="translate(-10.154047083288859 245.53631984646591) rotate(309.1491581177085)">1.0</text></g><g class="relationship"><path fill="#A5ABB6" stroke="none" d="M 24.018736134675446,6.953439040707552 L 24.277555179777966,5.987513214418485 A 320.4063254433993 320.4063254433993 0 0 0 96.05700395481604,16.711103907039615 L 96.0222112259097,17.710498456762195 A 321.4063254433993 321.4063254433993 0 0 1 24.018736134675446,6.953439040707552 Z M 113.16738168371356,17.849781982362288 L 113.14883019036743,16.849954076123083 A 320.4063254433993 320.4063254433993 0 0 0 185.0930259165098,7.293942088390572 L 184.36374994388774,4.383932370922919 L 192.00459458603797,6.077299771850404 L 186.06539388000584,11.17395504501411 L 185.3361179073838,8.263945327546455 A 321.4063254433993 321.4063254433993 0 0 1 113.16738168371356,17.849781982362288" class="outline" transform="translate(-120.66081924985858 157.11678958060517) rotate(350.0248726980715)"/><text x="104.598" y="20.395" fill="#000" font-family="sans-serif" font-size="8" pointer-events="none" text-anchor="middle" transform="translate(-120.66081924985858 157.11678958060517) rotate(350.0248726980715)">1.0</text></g><g class="relationship"><path fill="#A5ABB6" stroke="none" d="M 24.018736134675446,6.953439040707552 L 24.277555179777966,5.987513214418485 A 320.4063254433993 320.4063254433993 0 0 0 96.05700395481604,16.711103907039615 L 96.0222112259097,17.710498456762195 A 321.4063254433993 321.4063254433993 0 0 1 24.018736134675446,6.953439040707552 Z M 113.16738168371356,17.849781982362288 L 113.14883019036743,16.849954076123083 A 320.4063254433993 320.4063254433993 0 0 0 185.0930259165098,7.293942088390572 L 184.36374994388774,4.383932370922919 L 192.00459458603797,6.077299771850404 L 186.06539388000584,11.17395504501411 L 185.3361179073838,8.263945327546455 A 321.4063254433993 321.4063254433993 0 0 1 113.16738168371356,17.849781982362288" class="outline" transform="translate(92.32474362043493 119.65701498812257) rotate(530.0248726980715)"/><text x="104.598" y="20.395" fill="#000" font-family="sans-serif" font-size="8" pointer-events="none" text-anchor="middle" transform="translate(92.32474362043493 119.65701498812257) rotate(530.0248726980715) rotate(180 104.59792926650567 17.394505304914333)">0.2</text></g><g class="relationship"><path fill="#A5ABB6" stroke="none" d="M 24.018736134675446,6.953439040707552 L 24.277555179777966,5.987513214418485 A 215.02649688118166 215.02649688118166 0 0 0 69.09045270107644,13.040951656797063 L 69.04004005319139,14.039680130874586 A 216.02649688118166 216.02649688118166 0 0 1 24.018736134675446,6.953439040707552 Z M 86.19535637071324,14.223502846285413 L 86.16635599952333,13.223923445501839 A 215.02649688118166 215.02649688118166 0 0 0 131.12010497434102,7.13235293996726 L 130.40591954218488,4.218602921778336 L 138.0378859221412,5.951545267967768 L 132.07235221721587,11.017352964219159 L 131.35816678505972,8.103602946030234 A 216.02649688118166 216.02649688118166 0 0 1 86.19535637071324,14.223502846285413" class="outline" transform="translate(92.32474362043493 119.65701498812257) rotate(489.1491581177085)"/><text x="77.621" y="16.802" fill="#000" font-family="sans-serif" font-size="8" pointer-events="none" text-anchor="middle" transform="translate(92.32474362043493 119.65701498812257) rotate(489.1491581177085) rotate(180 77.62122994218322 13.80199158508563)">0.6</text></g><g class="relationship"><path fill="#A5ABB6" stroke="none" d="M 24.018736134675446,6.953439040707552 L 24.277555179777966,5.987513214418485 A 210.56600705297578 210.56600705297578 0 0 0 67.95362470381714,12.884072923829535 L 67.90222788291557,13.882751233797876 A 211.56600705297578 211.56600705297578 0 0 1 24.018736134675446,6.953439040707552 Z M 85.0581635948032,14.069086642061194 L 85.02847018788009,13.069527588485414 A 210.56600705297578 210.56600705297578 0 0 0 128.8440294746181,7.123238890103009 L 128.13069522681036,4.209280371025471 L 135.76215506043366,5.944452065064526 L 129.79514180502844,11.008516915539726 L 129.08180755722069,8.094558396462189 A 211.56600705297578 211.56600705297578 0 0 1 85.0581635948032,14.069086642061194" class="outline" transform="translate(92.32474362043493 119.65701498812257) rotate(412.313817838658)"/><text x="76.484" y="16.65" fill="#000" font-family="sans-serif" font-size="8" pointer-events="none" text-anchor="middle" transform="translate(92.32474362043493 119.65701498812257) rotate(412.313817838658)">0.2</text></g><g class="relationship"><path fill="#A5ABB6" stroke="none" d="M 25 0.5 L 81.04292019694347 0.5 L 81.04292019694347 -0.5 L 25 -0.5 Z M 102.61323269694347 0.5 L 158.65615289388694 0.5 L 158.65615289388694 3.5 L 165.65615289388694 0 L 158.65615289388694 -3.5 L 158.65615289388694 -0.5 L 102.61323269694347 -0.5 Z" class="outline" transform="translate(190.1661338907922 246.31209802090467) rotate(333.38569008969216)"/><text x="91.828" y="3" fill="#000" font-family="sans-serif" font-size="8" pointer-events="none" text-anchor="middle" transform="translate(190.1661338907922 246.31209802090467) rotate(333.38569008969216)">0.05</text></g><g class="relationship"><path fill="#A5ABB6" stroke="none" d="M 25 0.5 L 116.71994243861454 0.5 L 116.71994243861454 -0.5 L 25 -0.5 Z M 138.29025493861454 0.5 L 230.01019737722908 0.5 L 230.01019737722908 3.5 L 237.01019737722908 0 L 230.01019737722908 -3.5 L 230.01019737722908 -0.5 L 138.29025493861454 -0.5 Z" class="outline" transform="translate(190.1661338907922 246.31209802090467) rotate(296.8679205191947)"/><text x="127.505" y="3" fill="#000" font-family="sans-serif" font-size="8" pointer-events="none" text-anchor="middle" transform="translate(190.1661338907922 246.31209802090467) rotate(296.8679205191947)">0.05</text></g><g class="relationship"><path fill="#A5ABB6" stroke="none" d="M 25 0.5 L 97.0858992265156 0.5 L 97.0858992265156 -0.5 L 25 -0.5 Z M 118.6562117265156 0.5 L 190.7421109530312 0.5 L 190.7421109530312 3.5 L 197.7421109530312 0 L 190.7421109530312 -3.5 L 190.7421109530312 -0.5 L 118.6562117265156 -0.5 Z" class="outline" transform="translate(190.1661338907922 246.31209802090467) rotate(311.52153969329004)"/><text x="107.871" y="3" fill="#000" font-family="sans-serif" font-size="8" pointer-events="none" text-anchor="middle" transform="translate(190.1661338907922 246.31209802090467) rotate(311.52153969329004)">0.05</text></g><g class="relationship"><path fill="#A5ABB6" stroke="none" d="M 25 0.5 L 117.04348968071409 0.5 L 117.04348968071409 -0.5 L 25 -0.5 Z M 138.6138021807141 0.5 L 230.65729186142818 0.5 L 230.65729186142818 3.5 L 237.65729186142818 0 L 230.65729186142818 -3.5 L 230.65729186142818 -0.5 L 138.6138021807141 -0.5 Z" class="outline" transform="translate(190.1661338907922 246.31209802090467) rotate(274.3715062340158)"/><text x="127.829" y="3" fill="#000" font-family="sans-serif" font-size="8" pointer-events="none" text-anchor="middle" transform="translate(190.1661338907922 246.31209802090467) rotate(274.3715062340158)">0.05</text></g></g><g class="layer nodes"><g class="node" transform="translate(190.1661338907922,246.31209802090467)"><circle cx="0" cy="0" r="25" fill="#FF756E" stroke="#E06760" stroke-width="2" class="outline"/><text y="5" fill="#FFF" font-family="sans-serif" font-size="10" pointer-events="none" text-anchor="middle">Links</text></g><g class="node" transform="translate(92.32474362043493,119.65701498812257)"><circle cx="0" cy="0" r="25" fill="#FF756E" stroke="#E06760" stroke-width="2" class="outline"/><text y="5" fill="#FFF" font-family="sans-serif" font-size="10" pointer-events="none" text-anchor="middle">Home</text></g><g class="node" transform="translate(210.18670643567268,-15.581066538529086)"><circle cx="0" cy="0" r="25" fill="#FF756E" stroke="#E06760" stroke-width="2" class="outline"/><text y="5" fill="#FFF" font-family="sans-serif" font-size="10" pointer-events="none" text-anchor="middle">Site D</text></g><g class="node" transform="translate(337.8222273264733,79.54361759631763)"><circle cx="0" cy="0" r="25" fill="#FF756E" stroke="#E06760" stroke-width="2" class="outline"/><text y="5" fill="#FFF" font-family="sans-serif" font-size="10" pointer-events="none" text-anchor="middle">Site C</text></g><g class="node" transform="translate(308.5777982820808,12.585716827554165)"><circle cx="0" cy="0" r="25" fill="#FF756E" stroke="#E06760" stroke-width="2" class="outline"/><text y="5" fill="#FFF" font-family="sans-serif" font-size="10" pointer-events="none" text-anchor="middle">Site B</text></g><g class="node" transform="translate(360.62081436821063,160.90149832954094)"><circle cx="0" cy="0" r="25" fill="#FF756E" stroke="#E06760" stroke-width="2" class="outline"/><text y="5" fill="#FFF" font-family="sans-serif" font-size="10" pointer-events="none" text-anchor="middle">Site A</text></g><g class="node" transform="translate(-10.154047083288859,245.53631984646591)"><circle cx="0" cy="0" r="25" fill="#FF756E" stroke="#E06760" stroke-width="2" class="outline"/><text y="5" fill="#FFF" font-family="sans-serif" font-size="10" pointer-events="none" text-anchor="middle">Product</text></g><g class="node" transform="translate(-120.66081924985858,157.11678958060517)"><circle cx="0" cy="0" r="25" fill="#FF756E" stroke="#E06760" stroke-width="2" class="outline"/><text y="5" fill="#FFF" font-family="sans-serif" font-size="10" pointer-events="none" text-anchor="middle">About</text></g></g></svg>