<svg xmlns="http://www.w3.org/2000/svg" width="341.008" height="206.496" viewBox="123.889 -19.544 341.008 206.496"><title>Neo4j Graph Visualization</title><desc>Created using Neo4j (http://www.neo4j.com/)</desc><g class="layer relationships"><g class="relationship"><path fill="#A5ABB6" stroke="none" d="M 25 0.5 L 40.56813183824832 0.5 L 40.56813183824832 -0.5 L 25 -0.5 Z M 100.34547558824832 0.5 L 115.91360742649664 0.5 L 115.91360742649664 3.5 L 122.91360742649664 0 L 115.91360742649664 -3.5 L 115.91360742649664 -0.5 L 100.34547558824832 -0.5 Z" class="outline" transform="translate(152.88921396703267 9.456274961745544) rotate(360.60253776815114)"/><text x="70.457" y="3" fill="#000" font-family="sans-serif" font-size="8" pointer-events="none" text-anchor="middle" transform="translate(152.88921396703267 9.456274961745544) rotate(360.60253776815114)">CONNECTION</text></g><g class="relationship"><path fill="#A5ABB6" stroke="none" d="M 25 0.5 L 39.09255604805253 0.5 L 39.09255604805253 -0.5 L 25 -0.5 Z M 98.86989979805253 0.5 L 112.96245584610506 0.5 L 112.96245584610506 3.5 L 119.96245584610506 0 L 112.96245584610506 -3.5 L 112.96245584610506 -0.5 L 98.86989979805253 -0.5 Z" class="outline" transform="translate(300.79464244613155 11.011745415957805) rotate(381.2543369149832)"/><text x="68.981" y="3" fill="#000" font-family="sans-serif" font-size="8" pointer-events="none" text-anchor="middle" transform="translate(300.79464244613155 11.011745415957805) rotate(381.2543369149832)">CONNECTION</text></g><g class="relationship"><path fill="#A5ABB6" stroke="none" d="M 25 0.5 L 37.29624541832629 0.5 L 37.29624541832629 -0.5 L 25 -0.5 Z M 97.0735891683263 0.5 L 109.36983458665259 0.5 L 109.36983458665259 3.5 L 116.36983458665259 0 L 109.36983458665259 -3.5 L 109.36983458665259 -0.5 L 97.0735891683263 -0.5 Z" class="outline" transform="translate(300.79464244613155 11.011745415957805) rotate(449.1971761956333)"/><text x="67.185" y="3" fill="#000" font-family="sans-serif" font-size="8" pointer-events="none" text-anchor="middle" transform="translate(300.79464244613155 11.011745415957805) rotate(449.1971761956333)">CONNECTION</text></g><g class="relationship"><path fill="#A5ABB6" stroke="none" d="M 25 0.5 L 40.50184976826537 0.5 L 40.50184976826537 -0.5 L 25 -0.5 Z M 100.27919351826537 0.5 L 115.78104328653075 0.5 L 115.78104328653075 3.5 L 122.78104328653075 0 L 115.78104328653075 -3.5 L 115.78104328653075 -0.5 L 100.27919351826537 -0.5 Z" class="outline" transform="translate(302.775440257167 152.36770238661154) rotate(537.8344516563347)"/><text x="70.391" y="3" fill="#000" font-family="sans-serif" font-size="8" pointer-events="none" text-anchor="middle" transform="translate(302.775440257167 152.36770238661154) rotate(537.8344516563347) rotate(180 70.39052164326537 0)">CONNECTION</text></g><g class="relationship"><path fill="#A5ABB6" stroke="none" d="M 25 0.5 L 46.623474742117665 0.5 L 46.623474742117665 -0.5 L 25 -0.5 Z M 106.40081849211766 0.5 L 128.02429323423533 0.5 L 128.02429323423533 3.5 L 135.02429323423533 0 L 128.02429323423533 -3.5 L 128.02429323423533 -0.5 L 106.40081849211766 -0.5 Z" class="outline" transform="translate(435.89681473153064 63.56188003710122) rotate(506.2925823356428)"/><text x="76.512" y="3" fill="#000" font-family="sans-serif" font-size="8" pointer-events="none" text-anchor="middle" transform="translate(435.89681473153064 63.56188003710122) rotate(506.2925823356428) rotate(180 76.51214661711766 0)">CONNECTION</text></g></g><g class="layer nodes"><g class="node" transform="translate(152.88921396703267,9.456274961745544)"><circle cx="0" cy="0" r="25" fill="#F79767" stroke="#f36924" stroke-width="2" class="outline"/><text x="0" y="5" fill="#FFF" font-family="sans-serif" font-size="10" pointer-events="none" text-anchor="middle">0</text></g><g class="node" transform="translate(300.79464244613155,11.011745415957805)"><circle cx="0" cy="0" r="25" fill="#F79767" stroke="#f36924" stroke-width="2" class="outline"/><text x="0" y="5" fill="#FFF" font-family="sans-serif" font-size="10" pointer-events="none" text-anchor="middle">1</text></g><g class="node" transform="translate(302.775440257167,152.36770238661154)"><circle cx="0" cy="0" r="25" fill="#F79767" stroke="#f36924" stroke-width="2" class="outline"/><text x="0" y="5" fill="#FFF" font-family="sans-serif" font-size="10" pointer-events="none" text-anchor="middle">2</text></g><g class="node" transform="translate(435.89681473153064,63.56188003710122)"><circle cx="0" cy="0" r="25" fill="#F79767" stroke="#f36924" stroke-width="2" class="outline"/><text x="0" y="5" fill="#FFF" font-family="sans-serif" font-size="10" pointer-events="none" text-anchor="middle">3</text></g><g class="node" transform="translate(155.09993950862315,157.95189736192307)"><circle cx="0" cy="0" r="25" fill="#F79767" stroke="#f36924" stroke-width="2" class="outline"/><text x="0" y="5" fill="#FFF" font-family="sans-serif" font-size="10" pointer-events="none" text-anchor="middle">4</text></g></g></svg>