<svg xmlns="http://www.w3.org/2000/svg" width="556.144" height="253.34" viewBox="-265.348 -12.014 556.144 253.34"><title>Neo4j Graph Visualization</title><desc>Created using Neo4j (http://www.neo4j.com/)</desc><g class="layer relationships"><g class="relationship"><path fill="#A5ABB6" stroke="none" d="M 25 0.5 L 123.19703036043481 0.5 L 123.19703036043481 -0.5 L 25 -0.5 Z M 152.3103116104348 0.5 L 250.50734197086962 0.5 L 250.50734197086962 3.5 L 257.5073419708696 0 L 250.50734197086962 -3.5 L 250.50734197086962 -0.5 L 152.3103116104348 -0.5 Z" class="outline" transform="translate(-236.3479100984808 112.70810861446174) rotate(358.7660011830824)"/><text x="137.754" y="3" fill="#000" font-family="sans-serif" font-size="8" pointer-events="none" text-anchor="middle" transform="translate(-236.3479100984808 112.70810861446174) rotate(358.7660011830824)">ROAD</text></g><g class="relationship"><path fill="#A5ABB6" stroke="none" d="M 25 0.5 L 74.52806659305432 0.5 L 74.52806659305432 -0.5 L 25 -0.5 Z M 103.64134784305432 0.5 L 153.16941443610864 0.5 L 153.16941443610864 3.5 L 160.16941443610864 0 L 153.16941443610864 -3.5 L 153.16941443610864 -0.5 L 103.64134784305432 -0.5 Z" class="outline" transform="translate(-236.3479100984808 112.70810861446174) rotate(329.32841000394603)"/><text x="89.085" y="3" fill="#000" font-family="sans-serif" font-size="8" pointer-events="none" text-anchor="middle" transform="translate(-236.3479100984808 112.70810861446174) rotate(329.32841000394603)">ROAD</text></g><g class="relationship"><path fill="#A5ABB6" stroke="none" d="M 25 0.5 L 77.54024803781734 0.5 L 77.54024803781734 -0.5 L 25 -0.5 Z M 106.65352928781734 0.5 L 159.19377732563467 0.5 L 159.19377732563467 3.5 L 166.19377732563467 0 L 159.19377732563467 -3.5 L 159.19377732563467 -0.5 L 106.65352928781734 -0.5 Z" class="outline" transform="translate(-236.3479100984808 112.70810861446174) rotate(391.40143587287497)"/><text x="92.097" y="3" fill="#000" font-family="sans-serif" font-size="8" pointer-events="none" text-anchor="middle" transform="translate(-236.3479100984808 112.70810861446174) rotate(391.40143587287497)">ROAD</text></g><g class="relationship"><path fill="#A5ABB6" stroke="none" d="M 25 0.5 L 61.62023880427746 0.5 L 61.62023880427746 -0.5 L 25 -0.5 Z M 90.73352005427746 0.5 L 127.35375885855493 0.5 L 127.35375885855493 3.5 L 134.35375885855493 0 L 127.35375885855493 -3.5 L 127.35375885855493 -0.5 L 90.73352005427746 -0.5 Z" class="outline" transform="translate(-73.1568054718229 212.3259978652161) rotate(318.4467475859425)"/><text x="76.177" y="3" fill="#000" font-family="sans-serif" font-size="8" pointer-events="none" text-anchor="middle" transform="translate(-73.1568054718229 212.3259978652161) rotate(318.4467475859425)">ROAD</text></g><g class="relationship"><path fill="#A5ABB6" stroke="none" d="M 25 0.5 L 150.78014202814455 0.5 L 150.78014202814455 -0.5 L 25 -0.5 Z M 179.89342327814455 0.5 L 305.6735653062891 0.5 L 305.6735653062891 3.5 L 312.6735653062891 0 L 305.6735653062891 -3.5 L 305.6735653062891 -0.5 L 179.89342327814455 -0.5 Z" class="outline" transform="translate(-77.08271208081743 18.250135192384633) rotate(359.7854480548949)"/><text x="165.337" y="3" fill="#000" font-family="sans-serif" font-size="8" pointer-events="none" text-anchor="middle" transform="translate(-77.08271208081743 18.250135192384633) rotate(359.7854480548949)">ROAD</text></g><g class="relationship"><path fill="#A5ABB6" stroke="none" d="M 25 0.5 L 57.74316547918812 0.5 L 57.74316547918812 -0.5 L 25 -0.5 Z M 86.85644672918812 0.5 L 119.59961220837624 0.5 L 119.59961220837624 3.5 L 126.59961220837624 0 L 119.59961220837624 -3.5 L 119.59961220837624 -0.5 L 86.85644672918812 -0.5 Z" class="outline" transform="translate(-77.08271208081743 18.250135192384633) rotate(395.6578299191215)"/><text x="72.3" y="3" fill="#000" font-family="sans-serif" font-size="8" pointer-events="none" text-anchor="middle" transform="translate(-77.08271208081743 18.250135192384633) rotate(395.6578299191215)">ROAD</text></g><g class="relationship"><path fill="#A5ABB6" stroke="none" d="M 25 0.5 L 93.85214759467239 0.5 L 93.85214759467239 -0.5 L 25 -0.5 Z M 122.96542884467239 0.5 L 191.81757643934478 0.5 L 191.81757643934478 3.5 L 198.81757643934478 0 L 191.81757643934478 -3.5 L 191.81757643934478 -0.5 L 122.96542884467239 -0.5 Z" class="outline" transform="translate(46.093912884867905 106.62412165782006) rotate(375.4758127478107)"/><text x="108.409" y="3" fill="#000" font-family="sans-serif" font-size="8" pointer-events="none" text-anchor="middle" transform="translate(46.093912884867905 106.62412165782006) rotate(375.4758127478107)">ROAD</text></g><g class="relationship"><path fill="#A5ABB6" stroke="none" d="M 25 0.5 L 98.17908245214234 0.5 L 98.17908245214234 -0.5 L 25 -0.5 Z M 127.29236370214234 0.5 L 200.47144615428468 0.5 L 200.47144615428468 3.5 L 207.47144615428468 0 L 200.47144615428468 -3.5 L 200.47144615428468 -0.5 L 127.29236370214234 -0.5 Z" class="outline" transform="translate(46.093912884867905 106.62412165782006) rotate(337.319684684453)"/><text x="112.736" y="3" fill="#000" font-family="sans-serif" font-size="8" pointer-events="none" text-anchor="middle" transform="translate(46.093912884867905 106.62412165782006) rotate(337.319684684453)">ROAD</text></g><g class="relationship"><path fill="#A5ABB6" stroke="none" d="M 25 0.5 L 56.62582294947174 0.5 L 56.62582294947174 -0.5 L 25 -0.5 Z M 85.73910419947174 0.5 L 117.36492714894348 0.5 L 117.36492714894348 3.5 L 124.36492714894348 0 L 117.36492714894348 -3.5 L 117.36492714894348 -0.5 L 85.73910419947174 -0.5 Z" class="outline" transform="translate(260.5884857460778 16.98567293099527) rotate(449.5365764212679)"/><text x="71.182" y="3" fill="#000" font-family="sans-serif" font-size="8" pointer-events="none" text-anchor="middle" transform="translate(260.5884857460778 16.98567293099527) rotate(449.5365764212679)">ROAD</text></g></g><g class="layer nodes"><g class="node" transform="translate(-236.3479100984808,112.70810861446174)"><circle cx="0" cy="0" r="25" fill="#D9C8AE" stroke="#c0a378" stroke-width="2" class="outline"/><text x="0" y="5" fill="#2A2C34" font-family="sans-serif" font-size="10" pointer-events="none" text-anchor="middle">A</text></g><g class="node" transform="translate(-73.1568054718229,212.3259978652161)"><circle cx="0" cy="0" r="25" fill="#D9C8AE" stroke="#c0a378" stroke-width="2" class="outline"/><text x="0" y="5" fill="#2A2C34" font-family="sans-serif" font-size="10" pointer-events="none" text-anchor="middle">B</text></g><g class="node" transform="translate(-77.08271208081743,18.250135192384633)"><circle cx="0" cy="0" r="25" fill="#D9C8AE" stroke="#c0a378" stroke-width="2" class="outline"/><text x="0" y="5" fill="#2A2C34" font-family="sans-serif" font-size="10" pointer-events="none" text-anchor="middle">C</text></g><g class="node" transform="translate(46.093912884867905,106.62412165782006)"><circle cx="0" cy="0" r="25" fill="#D9C8AE" stroke="#c0a378" stroke-width="2" class="outline"/><text x="0" y="5" fill="#2A2C34" font-family="sans-serif" font-size="10" pointer-events="none" text-anchor="middle">D</text></g><g class="node" transform="translate(260.5884857460778,16.98567293099527)"><circle cx="0" cy="0" r="25" fill="#D9C8AE" stroke="#c0a378" stroke-width="2" class="outline"/><text x="0" y="5" fill="#2A2C34" font-family="sans-serif" font-size="10" pointer-events="none" text-anchor="middle">E</text></g><g class="node" transform="translate(261.7965760268283,166.34571437475876)"><circle cx="0" cy="0" r="25" fill="#D9C8AE" stroke="#c0a378" stroke-width="2" class="outline"/><text x="0" y="5" fill="#2A2C34" font-family="sans-serif" font-size="10" pointer-events="none" text-anchor="middle">F</text></g></g></svg>