<svg xmlns="http://www.w3.org/2000/svg" id="svg102" width="760.064" height="223.345" version="1.1" viewbox="0 0 1763 577"><metadata id="metadata108"/><path id="path2" fill="none" stroke="#848484" stroke-width="1.226" d="M 66.857596,29.056153 H 174.01108"/><polygon id="polygon4" fill="undefined" stroke="none" stroke-width="3" points="0 0 -20.088 -6.696 -18.08 0 -20.088 6.696" transform="matrix(0.43133932,0,0,0.38741538,181.80952,29.056153)"/><path id="path6" fill="none" stroke="#848484" stroke-width="1.226" d="M 32.35045,60.049384 V 156.29126"/><polygon id="polygon8" fill="undefined" stroke="none" stroke-width="3" points="0 0 -20.088 -6.696 -18.08 0 -20.088 6.696" transform="matrix(0,0.38741538,-0.43133932,0,32.35045,163.29559)"/><path id="path10" fill="none" stroke="#848484" stroke-width="1.226" d="M 56.750686,50.971677 186.4021,167.42049"/><polygon id="polygon12" fill="undefined" stroke="none" stroke-width="3" points="0 0 -20.088 -6.696 -18.08 0 -20.088 6.696" transform="matrix(0.30500296,0.27394404,-0.30500296,0.27394404,191.91643,172.37329)"/><path id="path14" fill="none" stroke="#848484" stroke-width="1.226" d="M 191.91643,50.971677 62.265021,167.42049"/><polygon id="polygon16" fill="undefined" stroke="none" stroke-width="3" points="0 0 -20.088 -6.696 -18.08 0 -20.088 6.696" transform="matrix(-0.30500296,0.27394404,-0.30500296,-0.27394404,56.750686,172.37329)"/><path id="path18" fill="none" stroke="#848484" stroke-width="1.226" d="M 216.31667,60.049384 V 156.29126"/><polygon id="polygon20" fill="undefined" stroke="none" stroke-width="3" points="0 0 -20.088 -6.696 -18.08 0 -20.088 6.696" transform="matrix(0,0.38741538,-0.43133932,0,216.31667,163.29559)"/><path id="path22" fill="none" stroke="#848484" stroke-width="1.226" d="M 66.857596,194.28881 H 174.01108"/><polygon id="polygon24" fill="undefined" stroke="none" stroke-width="3" points="0 0 -20.088 -6.696 -18.08 0 -20.088 6.696" transform="matrix(0.43133932,0,0,0.38741538,181.80952,194.28881)"/><path id="path26" fill="none" stroke="#848484" stroke-width="1.226" d="M 578.25483,29.056153 H 685.40831"/><polygon id="polygon28" fill="undefined" stroke="none" stroke-width="3" points="0 0 -20.088 -6.696 -18.08 0 -20.088 6.696" transform="matrix(0.43133932,0,0,0.38741538,693.20676,29.056153)"/><path id="path30" fill="none" stroke="#848484" stroke-width="1.226" d="M 727.7139,60.049384 V 156.29126"/><polygon id="polygon32" fill="undefined" stroke="none" stroke-width="3" points="0 0 -20.088 -6.696 -18.08 0 -20.088 6.696" transform="matrix(0,0.38741538,-0.43133932,0,727.7139,163.29559)"/><path id="path34" fill="none" stroke="#848484" stroke-width="1.226" d="M 578.25483,194.28881 H 685.40831"/><polygon id="polygon36" fill="undefined" stroke="none" stroke-width="3" points="0 0 -20.088 -6.696 -18.08 0 -20.088 6.696" transform="matrix(0.43133932,0,0,0.38741538,693.20676,194.28881)"/><path id="path38" fill="none" stroke="#848484" stroke-width="1.226" d="M 543.74768,60.049384 V 156.29126"/><polygon id="polygon40" fill="undefined" stroke="none" stroke-width="3" points="0 0 -20.088 -6.696 -18.08 0 -20.088 6.696" transform="matrix(0,0.38741538,-0.43133932,0,543.74768,163.29559)"/><path id="path42" fill="none" stroke="#848484" stroke-width="1.226" d="M 568.14792,50.971677 697.79933,167.42049"/><polygon id="polygon44" fill="undefined" stroke="none" stroke-width="3" points="0 0 -20.088 -6.696 -18.08 0 -20.088 6.696" transform="matrix(0.30500296,0.27394404,-0.30500296,0.27394404,703.31367,172.37329)"/><path id="path46" fill="none" stroke="#848484" stroke-width="1.226" d="M 703.31367,50.971677 573.66225,167.42049"/><polygon id="polygon48" fill="undefined" stroke="none" stroke-width="3" points="0 0 -20.088 -6.696 -18.08 0 -20.088 6.696" transform="matrix(-0.30500296,0.27394404,-0.30500296,-0.27394404,568.14792,172.37329)"/><path id="path50" fill="none" stroke="#848484" stroke-width="1.226" d="M 345.52503,29.056153 H 258.62226"/><polygon id="polygon52" fill="undefined" stroke="none" stroke-width="3" points="0 0 -20.088 -6.696 -18.08 0 -20.088 6.696" transform="matrix(-0.43133932,0,0,-0.38741538,250.82382,29.056153)"/><path id="path54" fill="none" stroke="#848484" stroke-width="1.226" d="m 414.53932,29.056153 h 86.90277"/><polygon id="polygon56" fill="undefined" stroke="none" stroke-width="3" points="0 0 -20.088 -6.696 -18.08 0 -20.088 6.696" transform="matrix(0.43133932,0,0,0.38741538,509.24054,29.056153)"/><path id="path58" fill="none" stroke="#848484" stroke-width="1.226" d="M 357.09201,52.208907 244.44121,165.90365"/><polygon id="polygon60" fill="undefined" stroke="none" stroke-width="3" points="0 0 -20.088 -6.696 -18.08 0 -20.088 6.696" transform="matrix(-0.28675208,0.28940942,-0.32222175,-0.25755167,239.25684,171.13606)"/><path id="path62" fill="none" stroke="#848484" stroke-width="1.226" d="M 402.97234,52.208907 515.62315,165.90365"/><polygon id="polygon64" fill="undefined" stroke="none" stroke-width="3" points="0 0 -20.088 -6.696 -18.08 0 -20.088 6.696" transform="matrix(0.28675208,0.28940942,-0.32222175,0.25755167,520.80752,171.13606)"/><ellipse id="circle66" cx="32.35" cy="29.056" fill="#4c8eda" stroke="none" rx="32.35" ry="29.056" strokewidth="0" style="stroke-width:.408788"/><text id="text68" x="30.659" y="32.907" fill="#fff" font-family="sans-serif" font-size="8.176" font-weight="normal" text-anchor="middle" transform="scale(1.0551667,0.94771753)" xml:space="preserve" style="stroke-width:.408788">A</text><ellipse id="circle70" cx="216.317" cy="29.056" fill="#4c8eda" stroke="none" rx="32.35" ry="29.056" strokewidth="0" style="stroke-width:.408788"/><text id="text72" x="205.007" y="32.907" fill="#fff" font-family="sans-serif" font-size="8.176" font-weight="normal" text-anchor="middle" transform="scale(1.0551667,0.94771753)" xml:space="preserve" style="stroke-width:.408788">B</text><ellipse id="circle74" cx="32.35" cy="194.289" fill="#4c8eda" stroke="none" rx="32.35" ry="29.056" strokewidth="0" style="stroke-width:.408788"/><text id="text76" x="30.659" y="207.255" fill="#fff" font-family="sans-serif" font-size="8.176" font-weight="normal" text-anchor="middle" transform="scale(1.0551667,0.94771753)" xml:space="preserve" style="stroke-width:.408788">C</text><ellipse id="circle78" cx="216.317" cy="194.289" fill="#4c8eda" stroke="none" rx="32.35" ry="29.056" strokewidth="0" style="stroke-width:.408788"/><text id="text80" x="205.007" y="207.255" fill="#fff" font-family="sans-serif" font-size="8.176" font-weight="normal" text-anchor="middle" transform="scale(1.0551667,0.94771753)" xml:space="preserve" style="stroke-width:.408788">D</text><ellipse id="circle82" cx="380.032" cy="29.056" fill="#4c8eda" stroke="none" rx="32.35" ry="29.056" strokewidth="0" style="stroke-width:.408788"/><text id="text84" x="360.163" y="32.907" fill="#fff" font-family="sans-serif" font-size="8.176" font-weight="normal" text-anchor="middle" transform="scale(1.0551667,0.94771753)" xml:space="preserve" style="stroke-width:.408788">E</text><ellipse id="circle86" cx="543.748" cy="29.056" fill="#4c8eda" stroke="none" rx="32.35" ry="29.056" strokewidth="0" style="stroke-width:.408788"/><text id="text88" x="515.319" y="32.907" fill="#fff" font-family="sans-serif" font-size="8.176" font-weight="normal" text-anchor="middle" transform="scale(1.0551667,0.94771753)" xml:space="preserve" style="stroke-width:.408788">F</text><ellipse id="circle90" cx="727.714" cy="29.056" fill="#4c8eda" stroke="none" rx="32.35" ry="29.056" strokewidth="0" style="stroke-width:.408788"/><text id="text92" x="689.667" y="32.907" fill="#fff" font-family="sans-serif" font-size="8.176" font-weight="normal" text-anchor="middle" transform="scale(1.0551667,0.94771753)" xml:space="preserve" style="stroke-width:.408788">G</text><ellipse id="circle94" cx="543.748" cy="194.289" fill="#4c8eda" stroke="none" rx="32.35" ry="29.056" strokewidth="0" style="stroke-width:.408788"/><text id="text96" x="515.319" y="207.255" fill="#fff" font-family="sans-serif" font-size="8.176" font-weight="normal" text-anchor="middle" transform="scale(1.0551667,0.94771753)" xml:space="preserve" style="stroke-width:.408788">H</text><ellipse id="circle98" cx="727.714" cy="194.289" fill="#4c8eda" stroke="none" rx="32.35" ry="29.056" strokewidth="0" style="stroke-width:.408788"/><text id="text100" x="689.667" y="207.255" fill="#fff" font-family="sans-serif" font-size="8.176" font-weight="normal" text-anchor="middle" transform="scale(1.0551667,0.94771753)" xml:space="preserve" style="stroke-width:.408788">I</text></svg>