<svg xmlns="http://www.w3.org/2000/svg" width="333.234" height="321.022" viewBox="-215.984 -127.337 333.234 321.022"><title>Neo4j Graph Visualization</title><desc>Created using Neo4j (http://www.neo4j.com/)</desc><g class="layer relationships"><g class="relationship"><path fill="#A5ABB6" stroke="none" d="M 25 0.5 L 54.458304247907265 0.5 L 54.458304247907265 -0.5 L 25 -0.5 Z M 83.13799174790726 0.5 L 112.59629599581453 0.5 L 112.59629599581453 3.5 L 119.59629599581453 0 L 112.59629599581453 -3.5 L 112.59629599581453 -0.5 L 83.13799174790726 -0.5 Z" class="outline" transform="translate(-56.323272872407195 -32.574865961646324) rotate(361.0094203814397)"/><text x="68.798" y="3" fill="#000" font-family="sans-serif" font-size="8" pointer-events="none" text-anchor="middle" transform="translate(-56.323272872407195 -32.574865961646324) rotate(361.0094203814397)">LIKES</text></g><g class="relationship"><path fill="#A5ABB6" stroke="none" d="M 25 0.5 L 47.51084956443543 0.5 L 47.51084956443543 -0.5 L 25 -0.5 Z M 76.19053706443543 0.5 L 98.70138662887086 0.5 L 98.70138662887086 3.5 L 105.70138662887086 0 L 98.70138662887086 -3.5 L 98.70138662887086 -0.5 L 76.19053706443543 -0.5 Z" class="outline" transform="translate(-56.323272872407195 -32.574865961646324) rotate(538.5678227465929)"/><text x="61.851" y="3" fill="#000" font-family="sans-serif" font-size="8" pointer-events="none" text-anchor="middle" transform="translate(-56.323272872407195 -32.574865961646324) rotate(538.5678227465929) rotate(180 61.85069331443543 0)">LIKES</text></g><g class="relationship"><path fill="#A5ABB6" stroke="none" d="M 25 0.5 L 78.19935230926619 0.5 L 78.19935230926619 -0.5 L 25 -0.5 Z M 106.87903980926619 0.5 L 160.07839211853238 0.5 L 160.07839211853238 3.5 L 167.07839211853238 0 L 160.07839211853238 -3.5 L 160.07839211853238 -0.5 L 106.87903980926619 -0.5 Z" class="outline" transform="translate(-56.323272872407195 -32.574865961646324) rotate(403.72495604413956)"/><text x="92.539" y="3" fill="#000" font-family="sans-serif" font-size="8" pointer-events="none" text-anchor="middle" transform="translate(-56.323272872407195 -32.574865961646324) rotate(403.72495604413956)">LIKES</text></g><g class="relationship"><path fill="#A5ABB6" stroke="none" d="M 25 0.5 L 62.70497185005851 0.5 L 62.70497185005851 -0.5 L 25 -0.5 Z M 91.38465935005851 0.5 L 129.08963120011703 0.5 L 129.08963120011703 3.5 L 136.08963120011703 0 L 129.08963120011703 -3.5 L 129.08963120011703 -0.5 L 91.38465935005851 -0.5 Z" class="outline" transform="translate(-57.63877110157463 -98.3368789654781) rotate(385.09026299919924)"/><text x="77.045" y="3" fill="#000" font-family="sans-serif" font-size="8" pointer-events="none" text-anchor="middle" transform="translate(-57.63877110157463 -98.3368789654781) rotate(385.09026299919924)">LIKES</text></g><g class="relationship"><path fill="#A5ABB6" stroke="none" d="M 25 0.5 L 55.46620526199513 0.5 L 55.46620526199513 -0.5 L 25 -0.5 Z M 84.14589276199513 0.5 L 114.61209802399026 0.5 L 114.61209802399026 3.5 L 121.61209802399026 0 L 114.61209802399026 -3.5 L 114.61209802399026 -0.5 L 84.14589276199513 -0.5 Z" class="outline" transform="translate(-57.63877110157463 -98.3368789654781) rotate(511.91210620472293)"/><text x="69.806" y="3" fill="#000" font-family="sans-serif" font-size="8" pointer-events="none" text-anchor="middle" transform="translate(-57.63877110157463 -98.3368789654781) rotate(511.91210620472293) rotate(180 69.80604901199513 0)">LIKES</text></g><g class="relationship"><path fill="#A5ABB6" stroke="none" d="M 25 0.5 L 54.427713759375465 0.5 L 54.427713759375465 -0.5 L 25 -0.5 Z M 83.10740125937546 0.5 L 112.53511501875093 0.5 L 112.53511501875093 3.5 L 119.53511501875093 0 L 112.53511501875093 -3.5 L 112.53511501875093 -0.5 L 83.10740125937546 -0.5 Z" class="outline" transform="translate(-62.04855293090567 100.7980056053467) rotate(359.75865588916054)"/><text x="68.768" y="3" fill="#000" font-family="sans-serif" font-size="8" pointer-events="none" text-anchor="middle" transform="translate(-62.04855293090567 100.7980056053467) rotate(359.75865588916054)">LIKES</text></g><g class="relationship"><path fill="#A5ABB6" stroke="none" d="M 25 0.5 L 60.71454271459919 0.5 L 60.71454271459919 -0.5 L 25 -0.5 Z M 89.39423021459919 0.5 L 125.10877292919838 0.5 L 125.10877292919838 3.5 L 132.10877292919838 0 L 125.10877292919838 -3.5 L 125.10877292919838 -0.5 L 89.39423021459919 -0.5 Z" class="outline" transform="translate(-62.85589661528141 40.53092132347139) rotate(382.31670449659146)"/><text x="75.054" y="3" fill="#000" font-family="sans-serif" font-size="8" pointer-events="none" text-anchor="middle" transform="translate(-62.85589661528141 40.53092132347139) rotate(382.31670449659146)">LIKES</text></g><g class="relationship"><path fill="#A5ABB6" stroke="none" d="M 25 0.5 L 65.54430511249997 0.5 L 65.54430511249997 -0.5 L 25 -0.5 Z M 94.22399261249997 0.5 L 134.76829772499994 0.5 L 134.76829772499994 3.5 L 141.76829772499994 0 L 134.76829772499994 -3.5 L 134.76829772499994 -0.5 L 94.22399261249997 -0.5 Z" class="outline" transform="translate(-62.85589661528141 40.53092132347139) rotate(334.9699974840644)"/><text x="79.884" y="3" fill="#000" font-family="sans-serif" font-size="8" pointer-events="none" text-anchor="middle" transform="translate(-62.85589661528141 40.53092132347139) rotate(334.9699974840644)">LIKES</text></g><g class="relationship"><path fill="#A5ABB6" stroke="none" d="M 25 0.5 L 53.373290693417204 0.5 L 53.373290693417204 -0.5 L 25 -0.5 Z M 82.0529781934172 0.5 L 110.42626888683441 0.5 L 110.42626888683441 3.5 L 117.42626888683441 0 L 110.42626888683441 -3.5 L 110.42626888683441 -0.5 L 82.0529781934172 -0.5 Z" class="outline" transform="translate(-62.85589661528141 40.53092132347139) rotate(209.36375825082803)"/><text x="67.713" y="3" fill="#000" font-family="sans-serif" font-size="8" pointer-events="none" text-anchor="middle" transform="translate(-62.85589661528141 40.53092132347139) rotate(209.36375825082803) rotate(180 67.7131344434172 0)">LIKES</text></g></g><g class="layer nodes"><g class="node" transform="translate(-186.98382983169736,-29.30816704719564)"><circle cx="0" cy="0" r="25" fill="#F79767" stroke="#f36924" stroke-width="2" class="outline"/><text x="0" y="5" fill="#FFF" font-family="sans-serif" font-size="10" pointer-events="none" text-anchor="middle">Guitar</text></g><g class="node" transform="translate(88.25058353879243,-30.027542247816143)"><circle cx="0" cy="0" r="25" fill="#F79767" stroke="#f36924" stroke-width="2" class="outline"/><text x="0" y="5" fill="#FFF" font-family="sans-serif" font-size="10" pointer-events="none" text-anchor="middle">Synthesi…</text></g><g class="node" transform="translate(82.48527984323732,100.18918945934792)"><circle cx="0" cy="0" r="25" fill="#F79767" stroke="#f36924" stroke-width="2" class="outline"/><text x="0" y="5" fill="#FFF" font-family="sans-serif" font-size="10" pointer-events="none" text-anchor="middle">Bongos</text></g><g class="node" transform="translate(-186.2559279250856,81.07020789025452)"><circle cx="0" cy="0" r="25" fill="#F79767" stroke="#f36924" stroke-width="2" class="outline"/><text x="0" y="5" fill="#FFF" font-family="sans-serif" font-size="10" pointer-events="none" text-anchor="middle">Trumpet</text></g><g class="node" transform="translate(-56.323272872407195,-32.574865961646324)"><circle cx="0" cy="0" r="25" fill="#DA7194" stroke="#cc3c6c" stroke-width="2" class="outline"/><text x="0" y="5" fill="#FFF" font-family="sans-serif" font-size="10" pointer-events="none" text-anchor="middle">Alice</text></g><g class="node" transform="translate(-57.63877110157463,-98.3368789654781)"><circle cx="0" cy="0" r="25" fill="#DA7194" stroke="#cc3c6c" stroke-width="2" class="outline"/><text x="0" y="5" fill="#FFF" font-family="sans-serif" font-size="10" pointer-events="none" text-anchor="middle">Bob</text></g><g class="node" transform="translate(-62.04855293090567,100.7980056053467)"><circle cx="0" cy="0" r="25" fill="#DA7194" stroke="#cc3c6c" stroke-width="2" class="outline"/><text x="0" y="5" fill="#FFF" font-family="sans-serif" font-size="10" pointer-events="none" text-anchor="middle">Carol</text></g><g class="node" transform="translate(-62.85589661528141,40.53092132347139)"><circle cx="0" cy="0" r="25" fill="#DA7194" stroke="#cc3c6c" stroke-width="2" class="outline"/><text x="0" y="5" fill="#FFF" font-family="sans-serif" font-size="10" pointer-events="none" text-anchor="middle">Dave</text></g><g class="node" transform="translate(-65.06471623581211,164.6849597013702)"><circle cx="0" cy="0" r="25" fill="#DA7194" stroke="#cc3c6c" stroke-width="2" class="outline"/><text x="0" y="5" fill="#FFF" font-family="sans-serif" font-size="10" pointer-events="none" text-anchor="middle">Eve</text></g></g></svg>