<svg xmlns="http://www.w3.org/2000/svg" width="363.722" height="266.815" viewBox="-94.558 -27.415 363.722 266.815"><title>Neo4j Graph Visualization</title><desc>Created using Neo4j (http://www.neo4j.com/)</desc><g class="layer relationships"><g class="relationship"><path fill="#A5ABB6" stroke="none" d="M 25 0.5 L 38.106073473510925 0.5 L 38.106073473510925 -0.5 L 25 -0.5 Z M 61.891229723510925 0.5 L 74.99730319702185 0.5 L 74.99730319702185 3.5 L 81.99730319702185 0 L 74.99730319702185 -3.5 L 74.99730319702185 -0.5 L 61.891229723510925 -0.5 Z" class="outline" transform="translate(240.16420103414762 115.62952127155077) rotate(477.6593316826827)"/><text x="49.999" y="3" fill="#000" font-family="sans-serif" font-size="8" pointer-events="none" text-anchor="middle" transform="translate(240.16420103414762 115.62952127155077) rotate(477.6593316826827) rotate(180 49.998651598510925 0)">LINK</text></g><g class="relationship"><path fill="#A5ABB6" stroke="none" d="M 25 0.5 L 38.054774062806665 0.5 L 38.054774062806665 -0.5 L 25 -0.5 Z M 61.839930312806665 0.5 L 74.89470437561333 0.5 L 74.89470437561333 3.5 L 81.89470437561333 0 L 74.89470437561333 -3.5 L 74.89470437561333 -0.5 L 61.839930312806665 -0.5 Z" class="outline" transform="translate(240.16420103414762 115.62952127155077) rotate(256.5901430850458)"/><text x="49.947" y="3" fill="#000" font-family="sans-serif" font-size="8" pointer-events="none" text-anchor="middle" transform="translate(240.16420103414762 115.62952127155077) rotate(256.5901430850458) rotate(180 49.947352187806665 0)">LINK</text></g><g class="relationship"><path fill="#A5ABB6" stroke="none" d="M 25 0.5 L 39.486699310968994 0.5 L 39.486699310968994 -0.5 L 25 -0.5 Z M 63.271855560968994 0.5 L 77.75855487193799 0.5 L 77.75855487193799 3.5 L 84.75855487193799 0 L 77.75855487193799 -3.5 L 77.75855487193799 -0.5 L 63.271855560968994 -0.5 Z" class="outline" transform="translate(12.704039838666274 1.584596429682843) rotate(431.7392849226597)"/><text x="51.379" y="3" fill="#000" font-family="sans-serif" font-size="8" pointer-events="none" text-anchor="middle" transform="translate(12.704039838666274 1.584596429682843) rotate(431.7392849226597)">LINK</text></g><g class="relationship"><path fill="#A5ABB6" stroke="none" d="M 25 0.5 L 38.60121022645138 0.5 L 38.60121022645138 -0.5 L 25 -0.5 Z M 62.38636647645138 0.5 L 75.98757670290276 0.5 L 75.98757670290276 3.5 L 82.98757670290276 0 L 75.98757670290276 -3.5 L 75.98757670290276 -0.5 L 62.38636647645138 -0.5 Z" class="outline" transform="translate(12.704039838666274 1.584596429682843) rotate(496.4465227461503)"/><text x="50.494" y="3" fill="#000" font-family="sans-serif" font-size="8" pointer-events="none" text-anchor="middle" transform="translate(12.704039838666274 1.584596429682843) rotate(496.4465227461503) rotate(180 50.49378835145138 0)">LINK</text></g></g><g class="layer nodes"><g class="node" transform="translate(47.095939901832494,105.81577016202364)"><circle cx="0" cy="0" r="25" fill="#A5ABB6" stroke="#9AA1AC" stroke-width="2" class="outline"/><text y="5" fill="#FFF" font-family="sans-serif" font-size="10" pointer-events="none" text-anchor="middle">Charles</text></g><g class="node" transform="translate(190.4946105885649,210.39953064373296)"><circle cx="0" cy="0" r="25" fill="#A5ABB6" stroke="#9AA1AC" stroke-width="2" class="outline"/><text y="5" fill="#FFF" font-family="sans-serif" font-size="10" pointer-events="none" text-anchor="middle">Doug</text></g><g class="node" transform="translate(240.16420103414762,115.62952127155077)"><circle cx="0" cy="0" r="25" fill="#A5ABB6" stroke="#9AA1AC" stroke-width="2" class="outline"/><text y="5" fill="#FFF" font-family="sans-serif" font-size="10" pointer-events="none" text-anchor="middle">Mark</text></g><g class="node" transform="translate(215.37368871374585,11.649194659052693)"><circle cx="0" cy="0" r="25" fill="#A5ABB6" stroke="#9AA1AC" stroke-width="2" class="outline"/><text y="5" fill="#FFF" font-family="sans-serif" font-size="10" pointer-events="none" text-anchor="middle">Michael</text></g><g class="node" transform="translate(12.704039838666274,1.584596429682843)"><circle cx="0" cy="0" r="25" fill="#A5ABB6" stroke="#9AA1AC" stroke-width="2" class="outline"/><text y="5" fill="#FFF" font-family="sans-serif" font-size="10" pointer-events="none" text-anchor="middle">Alice</text></g><g class="node" transform="translate(-65.55796687278293,75.99141753946004)"><circle cx="0" cy="0" r="25" fill="#A5ABB6" stroke="#9AA1AC" stroke-width="2" class="outline"/><text y="5" fill="#FFF" font-family="sans-serif" font-size="10" pointer-events="none" text-anchor="middle">Bridget</text></g></g></svg>